<?xml version="1.0" standalone="no"?>
<!DOCTYPE svg PUBLIC "-//W3C//DTD SVG 20010904//EN"
 "http://www.w3.org/TR/2001/REC-SVG-20010904/DTD/svg10.dtd">
<svg version="1.0" xmlns="http://www.w3.org/2000/svg"
 width="512.000000pt" height="512.000000pt" viewBox="0 0 512.000000 512.000000"
 preserveAspectRatio="xMidYMid meet">
<metadata>
Created by potrace 1.16, written by Peter Selinger 2001-2019
</metadata>
<g transform="translate(0.000000,512.000000) scale(0.100000,-0.100000)"
fill="#000000" stroke="none">
<path d="M0 2560 l0 -2560 2560 0 2560 0 0 2560 0 2560 -2560 0 -2560 0 0
-2560z m2810 2520 c290 -22 328 -29 730 -145 219 -63 287 -87 397 -141 135
-66 271 -159 309 -210 28 -40 33 -62 44 -194 13 -165 25 -194 120 -280 57 -50
91 -92 122 -146 39 -69 56 -87 220 -220 156 -128 212 -181 244 -234 9 -15 19
-92 30 -237 5 -67 2 -103 -20 -205 -41 -185 -76 -273 -161 -404 -66 -102 -79
-115 -98 -110 -12 3 -34 6 -50 6 -50 0 -183 149 -269 300 -41 73 -188 537
-223 706 -3 15 -15 23 -37 27 -18 3 -41 9 -52 13 -18 7 -18 1 -13 -152 5 -184
25 -288 87 -469 41 -117 61 -162 168 -369 53 -104 101 -161 158 -192 19 -10
34 -21 34 -24 0 -3 -29 -15 -65 -27 l-65 -21 -50 41 c-84 70 -145 184 -230
432 -27 77 -69 194 -95 260 -25 66 -55 156 -67 200 -11 44 -39 121 -61 170
-21 50 -58 151 -81 225 -60 190 -90 261 -159 375 -95 159 -139 216 -249 320
-128 121 -212 165 -363 190 -87 15 -148 16 -475 11 -533 -10 -612 -15 -677
-49 -29 -15 -55 -27 -59 -27 -3 0 -29 -11 -57 -24 -38 -18 -86 -59 -178 -153
-184 -188 -245 -272 -307 -423 -109 -266 -144 -366 -172 -489 -33 -148 -122
-399 -220 -621 -38 -85 -75 -180 -84 -210 -20 -66 -73 -148 -129 -201 l-42
-38 -6 42 c-7 42 -42 121 -72 161 -13 18 -11 24 18 65 88 126 147 259 246 555
98 290 123 450 93 573 -5 20 -12 23 -55 23 -45 0 -49 -2 -55 -27 -3 -16 -12
-50 -19 -78 -8 -27 -21 -88 -29 -133 -27 -141 -65 -278 -87 -307 -4 -6 -24
-55 -43 -108 -20 -54 -47 -122 -62 -150 -34 -70 -125 -227 -133 -232 -4 -2
-56 21 -115 52 -85 43 -125 71 -182 128 l-74 72 0 123 c0 121 0 123 38 204 42
89 67 114 195 199 111 74 131 82 237 108 105 25 167 63 190 118 18 45 5 77
-60 145 -52 55 -59 67 -69 123 -7 33 -9 80 -5 103 9 55 71 210 113 284 44 76
201 242 265 282 28 17 108 74 178 127 70 53 154 110 186 126 175 88 696 178
1047 180 83 0 265 -8 405 -19z m-25 -739 c153 -13 345 -45 430 -72 54 -17 67
-27 127 -98 71 -83 176 -226 186 -251 3 -8 20 -37 37 -65 29 -47 83 -178 265
-645 194 -500 280 -701 343 -805 l37 -60 -37 -3 c-21 -1 -69 1 -107 5 l-68 8
-23 90 c-25 96 -50 171 -84 248 -13 30 -21 70 -21 103 0 46 -5 60 -37 103 -21
28 -47 67 -57 88 -11 21 -29 52 -41 68 -12 17 -30 46 -42 66 -19 34 -33 52
-80 104 -57 64 -384 323 -470 372 -31 18 -176 52 -273 65 -47 6 -265 13 -484
15 l-399 4 -41 -39 c-23 -21 -63 -52 -91 -67 -55 -32 -164 -120 -199 -163 -61
-73 -229 -337 -267 -417 -23 -49 -62 -118 -86 -151 -24 -34 -43 -64 -43 -67 0
-4 -24 -44 -53 -89 -30 -46 -73 -130 -95 -187 l-42 -103 0 -230 c0 -226 0
-231 25 -280 l25 -50 -42 25 c-24 14 -97 52 -163 86 -125 63 -215 134 -199
156 5 6 26 37 46 67 20 31 43 62 51 69 27 28 80 113 117 187 39 79 66 149 145
377 25 72 59 157 75 190 17 33 44 114 61 180 17 66 56 183 88 260 32 77 64
158 71 180 22 69 131 318 151 346 10 15 19 31 19 36 0 6 23 32 52 59 28 27 67
67 87 89 138 152 203 203 275 216 37 7 703 -9 831 -20z m103 -917 c126 -43
306 -127 379 -176 108 -74 264 -213 311 -277 121 -166 170 -271 252 -542 l18
-57 -204 2 c-174 1 -204 3 -204 16 -2 68 -54 352 -86 465 -39 138 -68 178
-188 257 -126 82 -121 80 -252 123 l-109 35 -211 0 c-162 0 -221 -3 -254 -15
-23 -8 -53 -15 -66 -15 -14 0 -32 -4 -42 -9 -9 -6 -42 -21 -72 -34 -99 -43
-185 -142 -314 -364 -22 -39 -80 -204 -141 -404 -26 -86 -26 -87 -63 -92 -56
-8 -129 -43 -147 -70 -34 -53 -35 -79 -1 -164 18 -45 56 -112 84 -151 84 -113
96 -164 69 -295 l-12 -59 -45 35 c-25 18 -64 46 -88 61 -45 28 -165 149 -192
194 -111 182 -134 289 -90 418 25 75 32 88 101 204 50 84 229 431 229 443 0
16 106 181 133 207 96 94 160 139 264 184 187 80 212 86 392 96 90 6 167 12
169 15 3 3 66 5 140 5 128 0 139 -2 240 -36z m-65 -435 c55 -15 57 -6 -19
-141 -50 -89 -58 -99 -78 -92 -37 13 -363 17 -386 4 -12 -6 -24 -10 -26 -7 -3
2 -16 46 -30 98 -25 88 -25 94 -8 106 10 7 26 13 37 13 10 0 28 5 39 11 12 7
44 15 72 20 73 11 342 3 399 -12z m776 -675 c12 -15 21 -33 21 -40 0 -7 -28
-57 -62 -111 -33 -54 -72 -115 -85 -137 -23 -35 -26 -37 -37 -20 -9 14 -11 39
-5 94 4 41 8 110 8 152 l1 77 58 4 c31 2 62 4 69 5 6 1 21 -10 32 -24z m270
-31 c6 -27 15 -77 20 -113 8 -61 7 -67 -16 -98 -14 -18 -26 -32 -28 -30 -17
20 -135 222 -135 231 0 7 7 23 16 35 13 18 25 22 74 22 l58 0 11 -47z m-125
-201 c49 -80 55 -95 44 -111 -42 -58 -182 -231 -187 -231 -6 0 -111 174 -111
184 0 4 86 144 147 240 30 46 28 48 107 -82z m-664 -355 c0 -18 -145 -249
-173 -275 -15 -15 -36 -43 -47 -63 -16 -31 -46 -56 -56 -47 -5 6 -124 291
-122 293 77 50 105 79 166 173 l67 104 83 -88 c45 -48 82 -92 82 -97z m418 49
c23 -40 42 -76 42 -79 0 -3 -17 -16 -37 -28 -21 -13 -79 -54 -129 -91 -50 -37
-94 -68 -97 -68 -8 0 36 117 65 173 30 60 99 167 106 167 4 0 26 -33 50 -74z
m-1328 -61 c15 -14 57 -36 94 -49 37 -13 69 -26 72 -29 5 -5 -18 -67 -65 -171
l-31 -68 -27 18 c-15 9 -51 30 -80 45 -29 15 -64 41 -77 56 l-24 28 51 97 c29
54 54 98 56 98 3 0 17 -11 31 -25z m-755 -181 c17 -12 48 -31 70 -42 80 -41
80 -39 55 -112 -14 -41 -24 -100 -27 -160 -2 -52 -6 -96 -7 -98 -14 -14 -35
23 -58 101 -77 267 -97 328 -119 358 l-23 34 39 -29 c22 -17 54 -40 70 -52z
m373 -228 c39 -25 96 -50 127 -57 31 -7 58 -15 60 -19 4 -7 -87 -150 -95 -150
-3 0 -23 30 -44 66 -22 36 -58 91 -80 122 -74 100 -72 102 32 38z m1573 -66
c12 -22 33 -43 45 -47 22 -8 20 -12 -61 -153 -47 -80 -90 -153 -96 -164 -9
-16 -13 -16 -24 -5 -14 15 -185 287 -185 295 0 2 29 4 64 4 77 0 137 24 185
74 19 20 38 36 42 36 4 0 18 -18 30 -40z m-1241 -58 c8 -10 55 -84 103 -164
l89 -146 -24 -36 c-22 -35 -25 -36 -86 -36 -35 0 -89 8 -121 17 -59 17 -59 18
-113 108 l-54 90 70 98 c63 90 71 98 95 92 14 -3 33 -14 41 -23z m796 -10 c19
-7 15 -17 -63 -142 -46 -74 -86 -134 -89 -133 -6 2 -164 259 -164 267 0 11
284 17 316 8z m-426 -6 c0 -11 -133 -216 -140 -216 -5 0 -32 39 -61 88 -29 48
-59 97 -67 110 l-14 22 141 0 c77 0 141 -2 141 -4z m145 -192 l89 -146 -19
-34 -18 -34 -87 0 c-132 0 -145 5 -180 62 -26 42 -29 52 -19 71 17 32 140 227
143 227 2 0 43 -66 91 -146z m441 6 c68 -108 93 -141 116 -149 37 -13 30 -25
-29 -51 -39 -17 -67 -20 -183 -20 l-138 0 -19 33 -20 33 91 147 c50 81 92 147
93 147 1 0 41 -63 89 -140z m-715 -390 l119 0 25 -40 25 -40 -27 -43 c-15 -23
-28 -43 -28 -44 -1 -2 -34 -7 -75 -13 -40 -6 -82 -13 -94 -16 -18 -4 -29 8
-69 74 -44 72 -47 82 -36 106 8 16 18 25 27 21 7 -3 67 -5 133 -5z m547 -62
l39 -63 -141 -12 c-77 -7 -146 -10 -153 -8 -7 2 -19 18 -28 35 -15 29 -15 33
6 70 l23 40 107 0 107 0 40 -62z m-1198 -319 c25 -19 30 -30 30 -63 -1 -83
-35 -98 -181 -82 -60 7 -67 10 -72 32 -2 13 -1 43 4 67 4 23 8 64 9 90 0 26 7
61 15 78 l16 30 74 -65 c41 -36 88 -75 105 -87z m998 11 c20 -33 44 -60 52
-61 8 0 2 -5 -15 -10 -16 -6 -89 -13 -162 -16 l-131 -6 -26 27 -27 26 26 37
c23 35 30 39 97 49 142 23 144 22 186 -46z"/>
<path d="M2130 4934 c-25 -7 -115 -22 -200 -33 -131 -17 -171 -26 -254 -61
-114 -46 -125 -52 -222 -132 -84 -69 -151 -164 -183 -259 -17 -53 -21 -85 -19
-155 l3 -89 105 109 c311 323 322 332 440 343 56 5 105 19 172 47 21 9 60 16
89 16 28 0 81 9 119 21 63 19 88 20 376 17 292 -3 311 -4 354 -24 51 -25 131
-42 240 -53 80 -8 93 -13 180 -69 54 -36 220 -160 230 -173 7 -9 112 -129 125
-143 6 -6 24 -29 40 -51 46 -62 51 -65 99 -65 l46 0 0 70 c0 64 -3 76 -35 126
-19 30 -35 57 -35 60 0 5 -103 136 -127 162 -7 7 -18 21 -25 30 -7 9 -51 51
-98 93 -75 67 -97 80 -190 116 -258 99 -367 113 -838 112 -261 -1 -358 -4
-392 -15z"/>
</g>
</svg>
